<?xml version="1.0" encoding="UTF-8" standalone="no" ?>
<!DOCTYPE svg PUBLIC "-//W3C//DTD SVG 1.1//EN" "http://www.w3.org/Graphics/SVG/1.1/DTD/svg11.dtd">
<svg xmlns="http://www.w3.org/2000/svg" xmlns:xlink="http://www.w3.org/1999/xlink" version="1.1" width="24" height="24" viewBox="0 0 1080 1080" xml:space="preserve">
<desc>Created with Fabric.js 5.2.4</desc>
<defs>
</defs>
<g transform="matrix(1 0 0 1 540 540)" id="4da58963-beb2-4103-b611-d81bb631c56e"  >
</g>
<g transform="matrix(1 0 0 1 540 540)" id="65a0854f-af81-4cd3-afd4-3581d50fac28"  >
<rect style="stroke: none; stroke-width: 1; stroke-dasharray: none; stroke-linecap: butt; stroke-dashoffset: 0; stroke-linejoin: miter; stroke-miterlimit: 4; fill: rgb(255,255,255); fill-rule: nonzero; opacity: 1; visibility: hidden;" vector-effect="non-scaling-stroke"  x="-540" y="-540" rx="0" ry="0" width="1080" height="1080" />
</g>
<g transform="matrix(1.13 0 0 1.13 541.8 541.8)"  >
<path style="stroke: none; stroke-width: 1; stroke-dasharray: none; stroke-linecap: butt; stroke-dashoffset: 0; stroke-linejoin: miter; stroke-miterlimit: 4; fill: rgb(128,128,128); fill-rule: nonzero; opacity: 1;"  transform=" translate(-480, 480)" d="M 784 -120 L 532 -372 Q 502 -348 463 -334 Q 424 -320 380 -320 Q 271 -320 195.5 -395.5 Q 120 -471 120 -580 Q 120 -689 195.5 -764.5 Q 271 -840 380 -840 Q 489 -840 564.5 -764.5 Q 640 -689 640 -580 Q 640 -536 626 -497 Q 612 -458 588 -428 L 840 -176 L 784 -120 Z M 380 -400 Q 455 -400 507.5 -452.5 Q 560 -505 560 -580 Q 560 -655 507.5 -707.5 Q 455 -760 380 -760 Q 305 -760 252.5 -707.5 Q 200 -655 200 -580 Q 200 -505 252.5 -452.5 Q 305 -400 380 -400 Z" stroke-linecap="round" />
</g>
<g transform="matrix(NaN NaN NaN NaN 0 0)"  >
<g style=""   >
</g>
</g>
</svg>